<svg width="30" height="47" viewBox="0 0 30 47" fill="none" xmlns="http://www.w3.org/2000/svg">
<circle cx="14" cy="11" r="11" fill="#F5C30E" fill-opacity="0.78"/>
<path d="M10.5883 8H8.8234V9.77294H10.5883V8Z" fill="white"/>
<path d="M12.3532 8H10.5883V9.77294H12.3532V8Z" fill="white"/>
<path d="M8.8234 9.77294L7.05848 9.77294V11.5459H8.82339L8.8234 9.77294Z" fill="white"/>
<path d="M14.1181 9.77294L12.3532 9.77294L12.3532 11.5459H14.1181V9.77294Z" fill="white"/>
<path d="M8.82339 11.5459H7.05848V13.3188H8.82339V11.5459Z" fill="white"/>
<path d="M14.1181 11.5459H12.3532V13.3188H14.1181V11.5459Z" fill="white"/>
<path d="M8.82339 13.3177H7.05848V15.0906H8.82339V13.3177Z" fill="white"/>
<path d="M14.1181 13.3177H12.3532V15.0906H14.1181V13.3177Z" fill="white"/>
<path d="M8.82339 15.0906H7.05848V16.8635H8.82339V15.0906Z" fill="white"/>
<path d="M14.1181 15.0906H12.3532V16.8635H14.1181V15.0906Z" fill="white"/>
<path d="M8.82339 16.8635H7.05848V18.6365H8.82339V16.8635Z" fill="white"/>
<path d="M14.1181 16.8635H12.3532V18.6365H14.1181V16.8635Z" fill="white"/>
<path d="M15.8819 16.8635H14.117V18.6365H15.8819V16.8635Z" fill="white"/>
<path d="M17.6468 16.8635H15.8819V18.6365H17.6468V16.8635Z" fill="white"/>
<path d="M8.82339 18.6365H7.05848V20.4094H8.82339V18.6365Z" fill="white"/>
<path d="M14.1181 18.6365H12.3532V20.4094H14.1181V18.6365Z" fill="white"/>
<path d="M19.4117 18.6365L17.6468 18.6365L17.6468 20.4094H19.4117V18.6365Z" fill="white"/>
<path d="M21.1766 18.6365H19.4117V20.4094H21.1766V18.6365Z" fill="white"/>
<path d="M22.9415 18.6365H21.1766V20.4094H22.9415V18.6365Z" fill="white"/>
<path d="M8.82339 20.4094H7.05848V22.1824H8.82339V20.4094Z" fill="white"/>
<path d="M14.1181 20.4094H12.3532V22.1824H14.1181V20.4094Z" fill="white"/>
<path d="M19.4117 20.4094H17.6468V22.1824H19.4117V20.4094Z" fill="white"/>
<path d="M24.7053 20.4094H22.9404V22.1824H24.7053V20.4094Z" fill="white"/>
<path d="M26.4702 20.4094H24.7053V22.1824H26.4702V20.4094Z" fill="white"/>
<path d="M8.82339 22.1812H7.05848V23.9541H8.82339V22.1812Z" fill="white"/>
<path d="M14.1181 22.1812H12.3532V23.9541H14.1181V22.1812Z" fill="white"/>
<path d="M19.4117 22.1812H17.6468V23.9541H19.4117V22.1812Z" fill="white"/>
<path d="M24.7053 22.1812H22.9404V23.9541H24.7053V22.1812Z" fill="white"/>
<path d="M28.2351 22.1812H26.4702V23.9541H28.2351V22.1812Z" fill="white"/>
<path d="M1.76491 23.9541H0V25.7271H1.76491V23.9541Z" fill="white"/>
<path d="M3.52984 23.9541H1.76491V25.7271H3.52984V23.9541Z" fill="white"/>
<path d="M5.29473 23.9541H3.52984V25.7271H5.29473V23.9541Z" fill="white"/>
<path d="M8.82339 23.9541H7.05848V25.7271H8.82339V23.9541Z" fill="white"/>
<path d="M14.1181 23.9541H12.3532V25.7271H14.1181V23.9541Z" fill="white"/>
<path d="M19.4117 23.9541H17.6468V25.7271H19.4117V23.9541Z" fill="white"/>
<path d="M19.4117 25.7271H17.6468V27.5H19.4117V25.7271Z" fill="white"/>
<path d="M24.7053 23.9541H22.9404V25.7271H24.7053V23.9541Z" fill="white"/>
<path d="M30 23.9541L28.2351 23.9541L28.2351 25.7271H30V23.9541Z" fill="white"/>
<path d="M1.76491 25.7271H0V27.5H1.76491V25.7271Z" fill="white"/>
<path d="M7.05848 25.7271H5.29355V27.5H7.05847L7.05848 25.7271Z" fill="white"/>
<path d="M8.82339 25.7271H7.05848L7.05847 27.5H8.82339V25.7271Z" fill="white"/>
<path d="M24.7053 25.7271H22.9404V27.5H24.7053V25.7271Z" fill="white"/>
<path d="M24.7053 27.5H22.9404V29.2729H24.7053V27.5Z" fill="white"/>
<path d="M30 25.7271H28.2351V27.5H30V25.7271Z" fill="white"/>
<path d="M1.76491 27.5H0V29.2729H1.76491V27.5Z" fill="white"/>
<path d="M8.82339 27.5H7.05847L7.05848 29.2729H8.82339V27.5Z" fill="white"/>
<path d="M30 27.5H28.2351V29.2729H30V27.5Z" fill="white"/>
<path d="M3.52984 29.273L1.76491 29.2729L1.76493 31.0459H3.52984V29.273Z" fill="white"/>
<path d="M30 29.2729H28.2351V31.0459H30V29.2729Z" fill="white"/>
<path d="M5.29473 31.0447H3.52982V32.8176H5.29473V31.0447Z" fill="white"/>
<path d="M30 31.0447H28.2351V32.8176H30V31.0447Z" fill="white"/>
<path d="M5.29473 32.8176H3.52982V34.5906H5.29473V32.8176Z" fill="white"/>
<path d="M30 32.8176H28.2351V34.5906H30V32.8176Z" fill="white"/>
<path d="M7.05847 34.5906H5.29355V36.3635H7.05847V34.5906Z" fill="white"/>
<path d="M30 34.5906H28.2351V36.3635H30V34.5906Z" fill="white"/>
<path d="M7.05847 36.3635H5.29355V38.1365H7.05847V36.3635Z" fill="white"/>
<path d="M28.2351 36.3635L26.4702 36.3635V38.1365H28.2351L28.2351 36.3635Z" fill="white"/>
<path d="M8.82339 38.1365H7.05847L7.05848 39.9094H8.82339V38.1365Z" fill="white"/>
<path d="M28.2351 38.1365H26.4702V39.9094H28.2351V38.1365Z" fill="white"/>
<path d="M8.82339 39.9094H7.05848V41.6824H8.82339V39.9094Z" fill="white"/>
<path d="M28.2351 39.9094H26.4702V41.6824H28.2351V39.9094Z" fill="white"/>
<path d="M10.5883 41.6812H8.8234V43.4541H10.5883V41.6812Z" fill="white"/>
<path d="M26.4702 41.6812H24.7053V43.4541H26.4702V41.6812Z" fill="white"/>
<path d="M10.5883 43.4541H8.8234V45.2271H10.5883V43.4541Z" fill="white"/>
<path d="M26.4702 43.4541H24.7053V45.2271H26.4702V43.4541Z" fill="white"/>
<path d="M10.5883 45.2271H8.8234V47H10.5883V45.2271Z" fill="white"/>
<path d="M12.3532 45.2271H10.5883V47H12.3532V45.2271Z" fill="white"/>
<path d="M14.1181 45.2271H12.3532V47H14.1181V45.2271Z" fill="white"/>
<path d="M15.8819 45.2271H14.117V47H15.8819V45.2271Z" fill="white"/>
<path d="M17.6468 45.2271H15.8819V47H17.6468V45.2271Z" fill="white"/>
<path d="M19.4117 45.2271H17.6468V47H19.4117V45.2271Z" fill="white"/>
<path d="M21.1766 45.2271H19.4117V47H21.1766V45.2271Z" fill="white"/>
<path d="M22.9415 45.2271H21.1766V47H22.9415V45.2271Z" fill="white"/>
<path d="M24.7053 45.2271H22.9404V47H24.7053L24.7053 45.2271Z" fill="white"/>
<path d="M26.4702 45.2271H24.7053L24.7053 47H26.4702V45.2271Z" fill="white"/>
</svg>
