<svg width="22" height="30" viewBox="0 0 22 30" fill="none" xmlns="http://www.w3.org/2000/svg">
<ellipse cx="9.19772" cy="6.13636" rx="6.36765" ry="6.13636" fill="#F5C30E" fill-opacity="0.78"/>
<path d="M6.20844 16.9808V8.49692C6.20844 6.87176 6.96049 5.82312 7.92454 5.35071C8.3127 5.16058 8.73728 5.06618 9.16423 5.06671C9.59451 5.06717 10.0187 5.16493 10.4026 5.35212C11.3745 5.82576 12.1354 6.8741 12.1354 8.47158V10.4941C12.1898 10.48 12.2457 10.4728 12.302 10.4728H13.1812C13.2314 10.4728 13.2801 10.4784 13.3269 10.4889C14.3828 10.6523 14.9091 11.3298 15.1581 12.2105C15.2601 12.148 15.3785 12.1149 15.4994 12.115H16.3786C16.4287 12.115 16.4774 12.1206 16.5243 12.1312C17.6482 12.3048 18.172 13.0612 18.4001 14.0249C18.4552 14.0103 18.5121 14.0029 18.5692 14.0029H19.4484C19.4988 14.0029 19.5476 14.0086 19.5946 14.0193C22.0081 14.3911 21.973 17.3864 21.9497 19.3405C21.949 19.4028 21.9483 19.4606 21.9483 19.8135L21.9986 21.978C22.0002 22.0007 22.0005 22.0237 21.9993 22.0469C21.8914 24.1546 20.9009 25.7999 19.88 27.496L19.7926 27.643C19.3419 28.4023 18.8194 28.9823 18.2243 29.3789C17.6185 29.7824 16.9483 29.9899 16.2126 29.9974L16.1539 30H8.61656V29.9979C7.85839 30.0123 7.26965 29.6927 6.83658 29.0674C6.48827 28.5643 6.25659 27.8593 6.13157 26.9709L1.37208 20.0303C1.09088 19.6677 0.708839 19.1032 0.422029 18.4762C0.206935 18.0061 0.0439831 17.4956 0.00984516 16.9946C-0.0304629 16.4021 0.0549579 15.9247 0.230199 15.5516C0.44757 15.0884 0.793299 14.7863 1.21201 14.622C1.6029 14.4689 2.04386 14.4462 2.48862 14.5314C3.02157 14.6335 3.57117 14.8937 4.03995 15.2671C4.58711 15.7021 5.13536 16.1359 5.68469 16.5684L6.20844 16.9808Z" fill="#999999"/>
<path d="M7.23664 19.8243V8.64312C7.23664 8.09043 7.34563 7.6322 7.52654 7.26798C8.236 5.83914 10.094 5.8503 10.8128 7.26282C10.9964 7.62377 11.1072 8.07586 11.1072 8.61778V14.9982C11.1072 15.4999 11.8885 15.4853 11.8885 14.9982V11.8265C11.8888 11.8062 11.8916 11.7856 11.8972 11.7652C11.9624 11.5297 12.3401 11.6098 12.5378 11.6098C12.6983 11.6098 13.0446 11.5897 13.1836 11.6145C13.869 11.7394 14.1674 12.3792 14.2777 13.203C14.4337 14.369 14.2349 15.5255 14.2349 16.686C14.2349 17.1827 15.0162 17.1813 15.0162 16.686C15.0162 15.9888 15.0915 15.2811 15.1102 14.582C15.1199 14.2182 15.1183 13.8482 15.0927 13.486C15.0912 13.4607 15.0938 13.4353 15.1004 13.4107C15.1662 13.1655 15.7292 13.2508 15.9185 13.2551C16.8637 13.2764 17.2881 13.4491 17.475 14.8453C17.6324 16.021 17.4323 17.1633 17.4323 18.3281C17.4323 18.817 18.2136 18.83 18.2136 18.3281C18.2136 17.678 18.2815 17.0084 18.3033 16.356C18.3125 16.0821 18.3163 15.8042 18.3092 15.5296C18.3051 15.361 18.2922 15.1412 18.5499 15.1407C19.8782 15.1396 20.4531 15.1738 20.7864 16.8971C20.9463 17.7236 20.9347 18.7044 20.9255 19.4789C20.9201 19.8892 20.9312 20.2804 20.9406 20.6909L20.9745 22.1591C20.8847 23.8484 20.1105 25.275 19.2526 26.713C19.0069 27.1252 18.7469 27.5851 18.4489 27.9561C17.9022 28.6366 17.186 29.1388 16.2208 29.1563C13.6978 29.1738 11.1665 29.1552 8.64247 29.1552L8.60737 29.1568C7.55455 29.1828 7.26946 27.8049 7.15673 27.0381C7.10929 26.7161 7.13428 26.7874 6.92733 26.4831C5.46425 24.3289 3.75012 21.5138 2.19677 19.5857C1.87435 19.1701 1.57899 18.6989 1.36188 18.2237C1.08184 17.6113 0.864576 16.7456 1.1662 16.1043C1.47962 15.4347 2.29473 15.5699 2.85388 15.8405C3.31123 16.0618 3.77141 16.4826 4.16994 16.7994L5.66958 17.9799C5.86728 18.1335 6.10144 18.3469 6.31244 18.4727C6.35514 18.4919 6.39128 18.5223 6.41661 18.5606C6.44194 18.5988 6.45541 18.6432 6.45541 18.6886V19.8243C6.45541 20.3131 7.23664 20.3266 7.23664 19.8243Z" fill="white"/>
<path d="M7.89502 19.8244C8.01585 17.7721 7.56603 8.83134 8.18487 7.58526C8.89433 6.15637 10.094 6.16758 10.8128 7.5801C10.9964 7.941 11.1072 8.07591 11.1072 8.61782V14.9982C11.1072 15.4999 12.5468 15.4853 12.5468 14.9982V11.8265C12.5472 11.8058 12.5501 11.7852 12.5556 11.7652C12.6208 11.5298 12.6693 11.6098 12.867 11.6098C13.0275 11.6098 13.0446 11.5897 13.1836 11.6146C13.869 11.7395 14.1674 12.3792 14.2777 13.2031C14.4337 14.369 14.2349 15.5255 14.2349 16.686C14.2349 17.1827 15.6746 17.1814 15.6746 16.686C15.6746 15.9888 15.7498 15.2811 15.7686 14.582C15.7782 14.2183 15.7766 13.8482 15.7511 13.4861C15.7496 13.4608 15.7522 13.4354 15.7587 13.4108C16.1159 13.3354 16.9975 13.1517 17.475 14.8453C17.6324 16.021 17.4323 17.1633 17.4323 18.3281C17.4323 18.817 18.8719 18.83 18.8719 18.3281C18.8719 17.678 18.9399 17.0084 18.9617 16.3561C18.9709 16.0821 18.9743 15.8042 18.9676 15.5297C18.9634 15.3613 18.9506 15.1945 19.2082 15.1941C20.5608 15.4267 20.4666 15.3037 20.7864 16.8971C20.9463 17.7236 20.9347 18.7044 20.9255 19.479C20.9201 19.8892 20.9312 20.2804 20.9406 20.6909L20.9745 22.1591C20.8847 23.8484 20.4395 24.6407 19.5818 26.0786C19.336 26.4907 19.076 26.9508 18.7781 27.3217C18.2315 28.0021 17.5152 28.5045 16.55 28.5219C14.027 28.5394 11.4956 28.5209 8.97161 28.5209L8.93656 28.5224C7.88375 28.5483 7.92769 27.1705 7.81506 26.4037C7.76778 26.0819 7.79226 26.1528 7.58566 25.8487C6.12273 23.6949 4.73764 21.1967 3.18429 19.2685C2.86187 18.8529 2.56652 18.3817 2.3494 17.9065C1.30711 15.6269 2.38298 15.3791 4.16994 16.7994L5.66958 17.9799C5.86728 18.1335 6.10144 18.3469 6.31244 18.4728C6.35514 18.4919 6.39128 18.5224 6.41661 18.5606C6.44194 18.5989 6.45541 18.6433 6.45541 18.6886V19.8244C6.45541 20.3131 7.89502 20.3266 7.89502 19.8244Z" fill="white"/>
<path d="M17.0217 21.7358C17.0217 21.4587 17.2548 21.234 17.5425 21.234C17.83 21.234 18.0631 21.4587 18.0631 21.7358V24.0309C18.0631 24.3079 17.83 24.5326 17.5425 24.5326C17.2548 24.5326 17.0217 24.3079 17.0217 24.0309V21.7358ZM13.9439 20.722C13.9439 20.4448 14.177 20.2202 14.4646 20.2202C14.7523 20.2202 14.9854 20.4448 14.9854 20.722V24.0309C14.9854 24.3079 14.7523 24.5326 14.4646 24.5326C14.177 24.5326 13.9439 24.3079 13.9439 24.0309V20.722Z" fill="#999999"/>
</svg>
