<svg width="178" height="178" viewBox="0 0 178 178" fill="none" xmlns="http://www.w3.org/2000/svg">
<path d="M128.056 75.7657C135.963 75.8441 143.524 79.0199 149.116 84.6113C154.707 90.2026 157.883 97.7636 157.962 105.671C158.062 113.477 154.817 120.937 149.538 126.478C143.843 132.455 136.155 135.472 128.056 135.576C116.201 135.729 116.186 154.127 128.056 153.974C154.592 153.633 176.018 132.206 176.36 105.671C176.701 79.1332 154.077 57.7016 128.056 57.3674C116.186 57.2147 116.201 75.6132 128.056 75.7657ZM49.587 135.466C41.6798 135.388 34.1186 132.212 28.5271 126.621C22.9356 121.029 19.7597 113.468 19.6812 105.561C19.5809 97.7544 22.8258 90.2948 28.1051 84.7528C33.7996 78.7755 41.4878 75.7594 49.5868 75.6551C61.4419 75.5027 61.4565 57.104 49.5868 57.2568C23.0509 57.5979 1.62415 79.0244 1.2831 105.561C0.942053 132.098 23.5654 153.53 49.587 153.865C61.4567 154.017 61.4421 135.619 49.587 135.466Z" fill="url(#paint0_linear_140_2)"/>
<path d="M59.0456 66.7855C59.1236 58.8784 62.2994 51.3173 67.8908 45.7258C73.4822 40.1344 81.0434 36.9586 88.9504 36.8805C96.7567 36.7802 104.216 40.0254 109.757 45.3045C115.735 50.999 118.752 58.6867 118.856 66.7855C119.008 78.6404 137.407 78.6552 137.254 66.7855C136.913 40.2501 115.486 18.8234 88.9504 18.4823C62.4131 18.1413 40.9819 40.764 40.6474 66.7855C40.4945 78.6552 58.8931 78.6404 59.0456 66.7855Z" fill="url(#paint1_linear_140_2)"/>
<path d="M94.7424 82.2347C97.6179 85.1102 97.6179 89.7712 94.7424 92.6463L73.3807 114.009C70.5052 116.884 65.844 116.884 62.9691 114.009C60.0936 111.133 60.0936 106.471 62.9691 103.597L84.3312 82.2347C87.2058 79.3593 91.8675 79.3593 94.7424 82.2347Z" fill="#E4BC54"/>
<path d="M84.3369 82.2343C87.2115 79.3594 91.8731 79.3594 94.7479 82.2343L116.111 103.597C118.985 106.471 118.985 111.133 116.111 114.009C113.235 116.883 108.573 116.883 105.699 114.009L84.3369 92.6468C81.4606 89.7712 81.4606 85.1098 84.3369 82.2343Z" fill="#E4BC54"/>
<path d="M89.3559 110.225C93.523 110.225 96.9004 113.603 96.9004 117.769V148.725C96.9004 152.891 93.5226 156.269 89.3559 156.269C85.1903 156.269 81.8125 152.891 81.8125 148.725V117.769C81.8127 113.602 85.1905 110.225 89.3559 110.225Z" fill="#E4BC54"/>
<defs>
<linearGradient id="paint0_linear_140_2" x1="88.7778" y1="105.688" x2="88.8216" y2="153.975" gradientUnits="userSpaceOnUse">
<stop stop-color="#51A044" stop-opacity="0.89"/>
<stop offset="1" stop-color="#F0BE54"/>
</linearGradient>
<linearGradient id="paint1_linear_140_2" x1="89" y1="29" x2="89" y2="68" gradientUnits="userSpaceOnUse">
<stop stop-color="#B73C35"/>
<stop offset="1" stop-color="#63A957"/>
</linearGradient>
</defs>
</svg>
